# MineVis GeoVolume surface geometry
o FAULT_Main_Fault
v 478.96255 187.50386 69.14776
v 435.27225 187.50385 23.43563
v 479.36826 62.5038 68.67305
v 483.04535 325.00409 74.428
v 434.46097 312.50391 23.42952
v 478.96255 187.50386 69.14776
v 485.64716 437.50464 77.92499
v 433.63889 437.50403 23.41741
v 483.04535 325.00409 74.428
v 500.33911 458.33713 93.71623
v 485.64716 437.50464 77.92499
v 500.90802 375.00381 93.7538
v 485.14075 544.45142 78.05043
v 432.71338 562.50446 23.39441
v 485.64716 437.50464 77.92499
v 476.73944 687.50891 70.21459
v 431.45221 687.50531 23.36172
v 485.14075 544.45142 78.05043
v 499.89529 553.33771 93.87463
v 485.14075 544.45142 78.05043
v 500.33911 458.33713 93.71623
v 499.46475 687.50433 94.35364
v 476.73944 687.50891 70.21459
v 499.89529 553.33771 93.87463
v 475.21027 812.51068 70.18736
v 429.43744 812.50507 23.39547
v 476.73944 687.50891 70.21459
v 472.6622 937.51392 70.70638
v 426.8855 937.50537 23.8078
v 475.21027 812.51068 70.18736
v 498.88544 812.50677 94.98118
v 475.21027 812.51068 70.18736
v 499.46475 687.50433 94.35364
v 497.53397 937.51215 96.37675
v 472.6622 937.51392 70.70638
v 498.88544 812.50677 94.98118
v 525.32617 187.50386 117.19792
v 501.16486 187.50377 92.59621
v 526.22083 62.50385 117.19726
v 570.789 187.50372 164.06865
v 525.32617 187.50386 117.19792
v 571.66266 62.50374 164.06873
v 524.49005 312.50385 117.19789
v 500.70984 312.50378 93.05418
v 525.32617 187.50386 117.19792
v 569.99359 312.50372 164.06787
v 524.49005 312.50385 117.19789
v 570.789 187.50372 164.06865
v 518.98828 450.00375 112.48427
v 500.27438 437.50378 93.4874
v 524.49005 312.50385 117.19789
v 569.31879 437.50369 164.0652
v 518.98828 450.00375 112.48427
v 569.99359 312.50372 164.06787
v 609.12732 187.50365 204.48228
v 570.789 187.50372 164.06865
v 609.57843 62.5037 203.92033
v 660.85779 187.50377 257.83099
v 631.4704 187.5038 227.9234
v 661.89264 62.50377 257.82721
v 706.20758 187.50366 304.70193
v 660.85779 187.50377 257.83099
v 707.24701 62.50369 304.69876
v 739.3161 187.50375 339.55933
v 706.20758 187.50366 304.70193
v 739.85419 62.50378 338.93613
v 608.71356 312.50357 205.03453
v 569.99359 312.50372 164.06787
v 609.12732 187.50365 204.48228
v 608.35913 437.50345 205.56883
v 569.31879 437.50369 164.0652
v 608.71356 312.50357 205.03453
v 659.85999 312.50375 257.83704
v 630.95142 312.50378 228.47797
v 660.85779 187.50377 257.83099
v 658.92639 437.50366 257.84775
v 630.45544 437.50378 229.01666
v 659.85999 312.50375 257.83704
v 705.21234 312.5036 304.70761
v 659.85999 312.50375 257.83704
v 706.20758 187.50366 304.70193
v 738.79663 312.50375 340.17804
v 705.21234 312.5036 304.70761
v 739.3161 187.50375 339.55933
v 704.30011 437.50354 304.71902
v 658.92639 437.50366 257.84775
v 705.21234 312.5036 304.70761
v 738.31476 437.50375 340.77155
v 704.30011 437.50354 304.71902
v 738.79663 312.50375 340.17804
v 513.19379 555.95581 107.23289
v 499.84851 535.42114 93.72063
v 518.98828 450.00375 112.48427
v 568.83215 562.50366 164.05711
v 513.19379 555.95581 107.23289
v 569.31879 437.50369 164.0652
v 518.37555 675.00153 112.99143
v 499.24622 625.00378 93.7538
v 513.19379 555.95581 107.23289
v 568.64178 687.50391 164.03145
v 518.37555 675.00153 112.99143
v 568.83215 562.50366 164.05711
v 568.86786 812.50586 163.95078
v 523.21924 812.49628 118.45055
v 568.64178 687.50391 164.03145
v 569.17987 937.50116 163.93663
v 522.84363 937.49487 119.77108
v 568.86786 812.50586 163.95078
v 608.10144 562.50323 206.07214
v 568.83215 562.50366 164.05711
v 608.35913 437.50345 205.56883
v 608.00775 687.50293 206.522
v 568.64178 687.50391 164.03145
v 608.10144 562.50323 206.07214
v 658.10193 562.50336 257.86969
v 629.99841 562.50372 229.52893
v 658.92639 437.50366 257.84775
v 657.46021 687.5022 257.92361
v 629.60638 687.50366 229.99908
v 658.10193 562.50336 257.86969
v 703.54773 562.5036 304.74548
v 658.10193 562.50336 257.86969
v 704.30011 437.50354 304.71902
v 737.91052 562.50397 341.28387
v 703.54773 562.5036 304.74548
v 738.31476 437.50375 340.77155
v 703.12378 687.50488 304.81366
v 657.46021 687.5022 257.92361
v 703.54773 562.5036 304.74548
v 737.6814 687.50543 341.55249
v 703.12378 687.50488 304.81366
v 737.91052 562.50397 341.28387
v 608.1864 812.50299 206.8748
v 568.86786 812.50586 163.95078
v 608.00775 687.50293 206.522
v 608.58429 937.50342 207.04759
v 569.17987 937.50116 163.93663
v 608.1864 812.50299 206.8748
v 657.11298 812.50177 258.06622
v 629.31989 812.50354 230.40028
v 657.46021 687.5022 257.92361
v 657.3576 937.4978 258.03992
v 629.23187 937.5036 230.61176
v 657.11298 812.50177 258.06622
v 703.42993 812.51324 304.9436
v 657.11298 812.50177 258.06622
v 703.12378 687.50488 304.81366
v 737.92975 812.51105 341.11456
v 703.42993 812.51324 304.9436
v 737.6814 687.50543 341.55249
v 705.19489 937.50647 304.41226
v 657.3576 937.4978 258.03992
v 703.42993 812.51324 304.9436
v 739.40106 937.50525 339.25995
v 705.19489 937.50647 304.41226
v 737.92975 812.51105 341.11456
v 797.01978 187.50351 398.46564
v 762.01965 187.50366 363.00311
v 798.10779 62.50361 398.45825
v 842.58258 187.50378 445.33929
v 797.01978 187.50351 398.46564
v 843.60651 62.50376 445.33163
v 870.07715 187.50374 473.9646
v 842.58258 187.50378 445.33929
v 870.58508 62.50376 473.42322
v 934.65887 187.5036 539.10071
v 893.25555 187.50339 497.41739
v 935.49323 62.50362 539.0907
v 795.98389 312.50336 398.47824
v 761.46466 312.50357 363.6236
v 797.01978 187.50351 398.46564
v 841.65814 312.50385 445.35251
v 795.98389 312.50336 398.47824
v 842.58258 187.50378 445.33929
v 795.06586 437.50317 398.50104
v 760.94727 437.50339 364.22031
v 795.98389 312.50336 398.47824
v 840.935 437.50409 445.3757
v 795.06586 437.50317 398.50104
v 841.65814 312.50385 445.35251
v 869.62805 312.50372 474.43811
v 841.65814 312.50385 445.35251
v 870.07715 187.50374 473.9646
v 869.29688 437.50381 474.77304
v 840.935 437.50409 445.3757
v 869.62805 312.50372 474.43811
v 934.01563 312.50366 539.11536
v 892.87366 312.5033 497.89282
v 934.65887 187.5036 539.10071
v 933.70569 437.504 539.13513
v 892.63898 437.50342 498.22784
v 934.01563 312.50366 539.11536
v 978.88177 187.50394 584.20764
v 934.65887 187.5036 539.10071
v 979.26312 62.50386 583.87836
v 978.60785 312.50409 584.39325
v 934.01563 312.50366 539.11536
v 978.88177 187.50394 584.20764
v 978.51453 437.50439 584.35516
v 933.70569 437.504 539.13513
v 978.60785 312.50409 584.39325
v 794.41547 562.50342 398.54318
v 760.52588 562.50323 364.73846
v 795.06586 437.50317 398.50104
v 840.61682 562.50488 445.41382
v 794.41547 562.50342 398.54318
v 840.935 437.50409 445.3757
v 794.38757 687.50574 398.60809
v 760.35883 687.50458 365.01288
v 794.41547 562.50342 398.54318
v 841.08429 687.50665 445.45349
v 794.38757 687.50574 398.60809
v 840.61682 562.50488 445.41382
v 869.20038 562.50433 474.83542
v 840.61682 562.50488 445.41382
v 869.29688 437.50381 474.77304
v 869.55139 687.50562 474.40277
v 841.08429 687.50665 445.45349
v 869.20038 562.50433 474.83542
v 933.94995 562.50476 539.15375
v 892.66833 562.50409 498.28384
v 933.70569 437.504 539.13513
v 934.99902 687.50537 539.14417
v 893.12665 687.50537 497.83209
v 933.94995 562.50476 539.15375
v 795.67749 812.50842 398.59464
v 760.87317 812.50916 364.5365
v 794.38757 687.50574 398.60809
v 842.77979 812.5061 445.3866
v 795.67749 812.50842 398.59464
v 841.08429 687.50665 445.45349
v 798.17249 937.50024 398.14124
v 762.53058 937.50446 362.69977
v 795.67749 812.50842 398.59464
v 845.0047 937.50055 445.07782
v 798.17249 937.50024 398.14124
v 842.77979 812.5061 445.3866
v 870.573 812.50452 473.28201
v 842.77979 812.5061 445.3866
v 869.55139 687.50562 474.40277
v 871.82501 937.50232 471.97311
v 845.0047 937.50055 445.07782
v 870.573 812.50452 473.28201
v 936.81598 812.5036 539.05426
v 894.08801 812.50421 496.70001
v 934.99902 687.50537 539.14417
v 938.4646 937.50226 538.90985
v 895.09418 937.50214 495.4342
v 936.81598 812.5036 539.05426
v 978.70862 562.50482 583.99451
v 933.94995 562.50476 539.15375
v 978.51453 437.50439 584.35516
v 979.29718 687.50476 583.24384
v 934.99902 687.50537 539.14417
v 978.70862 562.50482 583.99451
v 980.22961 812.50336 582.21234
v 936.81598 812.5036 539.05426
v 979.29718 687.50476 583.24384
v 981.04211 937.50281 581.37421
v 938.4646 937.50226 538.90985
v 980.22961 812.50336 582.21234
v 472.66235 1062.49377 70.70631
v 426.88562 1062.5022 23.80777
v 472.6622 937.51392 70.70638
v 475.21039 1187.49695 70.18735
v 429.43759 1187.50256 23.39546
v 472.66235 1062.49377 70.70631
v 497.53409 1062.49548 96.37663
v 472.66235 1062.49377 70.70631
v 497.53397 937.51215 96.37675
v 498.8855 1187.50085 94.98112
v 475.21039 1187.49695 70.18735
v 497.53409 1062.49548 96.37663
v 476.7395 1312.49866 70.21459
v 431.4523 1312.50232 23.36172
v 475.21039 1187.49695 70.18735
v 485.14078 1455.55493 78.05042
v 432.71344 1437.50317 23.39441
v 476.7395 1312.49866 70.21459
v 499.46475 1312.5033 94.35361
v 476.7395 1312.49866 70.21459
v 498.8855 1187.50085 94.98112
v 499.89529 1446.66833 93.87461
v 485.14078 1455.55493 78.05042
v 499.46475 1312.5033 94.35361
v 485.64719 1562.50293 77.92497
v 433.63892 1562.50354 23.41741
v 485.14078 1455.55493 78.05042
v 483.04538 1675.00354 74.42798
v 434.46103 1687.50366 23.42952
v 485.64719 1562.50293 77.92497
v 500.33914 1541.67053 93.71622
v 485.64719 1562.50293 77.92497
v 499.89529 1446.66833 93.87461
v 500.90808 1625.00378 93.7538
v 483.04538 1675.00354 74.42798
v 500.33914 1541.67053 93.71622
v 478.96255 1812.50378 69.14773
v 435.27231 1812.50378 23.43563
v 483.04538 1675.00354 74.42798
v 479.36826 1937.50378 68.67302
v 436.10379 1937.50378 23.43872
v 478.96255 1812.50378 69.14773
v 569.17987 1062.50647 163.93661
v 522.84369 1062.5127 119.77098
v 569.17987 937.50116 163.93663
v 568.8678 1187.50171 163.95079
v 523.21924 1187.51135 118.45049
v 569.17987 1062.50647 163.93661
v 568.64178 1312.50366 164.03145
v 518.37555 1325.0061 112.9914
v 568.8678 1187.50171 163.95079
v 518.37555 1325.0061 112.9914
v 499.84851 1464.58459 93.72061
v 513.19385 1444.05078 107.23287
v 568.83215 1437.50391 164.05711
v 513.19385 1444.05078 107.23287
v 568.64178 1312.50366 164.03145
v 608.58429 1062.50415 207.04759
v 569.17987 1062.50647 163.93661
v 608.58429 937.50342 207.04759
v 608.1864 1187.50464 206.87479
v 568.8678 1187.50171 163.95079
v 608.58429 1062.50415 207.04759
v 657.35754 1062.50977 258.03995
v 629.23187 1062.50403 230.61176
v 657.3576 937.4978 258.03992
v 657.11298 1187.50586 258.06622
v 629.31989 1187.50403 230.40027
v 657.35754 1062.50977 258.03995
v 705.19476 1062.5011 304.41235
v 657.35754 1062.50977 258.03995
v 705.19489 937.50647 304.41226
v 739.40094 1062.50232 339.2601
v 705.19476 1062.5011 304.41235
v 739.40106 937.50525 339.25995
v 703.42987 1187.49438 304.94357
v 657.11298 1187.50586 258.06622
v 705.19476 1062.5011 304.41235
v 737.92969 1187.49658 341.11462
v 703.42987 1187.49438 304.94357
v 739.40094 1062.50232 339.2601
v 608.00775 1312.50464 206.52197
v 568.64178 1312.50366 164.03145
v 608.1864 1187.50464 206.87479
v 608.1015 1437.50439 206.07211
v 568.83215 1437.50391 164.05711
v 608.00775 1312.50464 206.52197
v 657.46021 1312.50537 257.92361
v 629.60638 1312.50391 229.99905
v 657.11298 1187.50586 258.06622
v 658.10199 1437.50427 257.86969
v 629.99847 1437.50391 229.5289
v 657.46021 1312.50537 257.92361
v 703.12384 1312.50269 304.81366
v 657.46021 1312.50537 257.92361
v 703.42987 1187.49438 304.94357
v 737.6814 1312.5022 341.55249
v 703.12384 1312.50269 304.81366
v 737.92969 1187.49658 341.11462
v 703.54779 1437.50403 304.74545
v 658.10199 1437.50427 257.86969
v 703.12384 1312.50269 304.81366
v 737.91052 1437.50366 341.28384
v 703.54779 1437.50403 304.74545
v 737.6814 1312.5022 341.55249
v 518.98834 1550.00378 112.48426
v 500.27441 1562.50378 93.48738
v 513.19385 1444.05078 107.23287
v 569.31879 1562.50391 164.0652
v 518.98834 1550.00378 112.48426
v 568.83215 1437.50391 164.05711
v 524.49011 1687.50378 117.19789
v 500.70987 1687.50378 93.05415
v 518.98834 1550.00378 112.48426
v 569.99365 1687.50391 164.06787
v 524.49011 1687.50378 117.19789
v 569.31879 1562.50391 164.0652
v 525.32623 1812.50378 117.19792
v 501.16489 1812.50378 92.59619
v 524.49011 1687.50378 117.19789
v 570.789 1812.50391 164.06865
v 525.32623 1812.50378 117.19792
v 569.99365 1687.50391 164.06787
v 526.22089 1937.50378 117.19726
v 501.63733 1937.50378 92.11737
v 525.32623 1812.50378 117.19792
v 571.66272 1937.50391 164.06873
v 526.22089 1937.50378 117.19726
v 570.789 1812.50391 164.06865
v 608.35913 1562.50415 205.5688
v 569.31879 1562.50391 164.0652
v 608.1015 1437.50439 206.07211
v 608.71356 1687.50403 205.0345
v 569.99365 1687.50391 164.06787
v 608.35913 1562.50415 205.5688
v 658.92645 1562.50391 257.84775
v 630.45544 1562.50378 229.01663
v 658.10199 1437.50427 257.86969
v 659.86005 1687.50391 257.83704
v 630.95148 1687.50378 228.47794
v 658.92645 1562.50391 257.84775
v 704.30017 1562.50403 304.71902
v 658.92645 1562.50391 257.84775
v 703.54779 1437.50403 304.74545
v 738.31482 1562.50391 340.77151
v 704.30017 1562.50403 304.71902
v 737.91052 1437.50366 341.28384
v 705.2124 1687.50403 304.70761
v 659.86005 1687.50391 257.83704
v 704.30017 1562.50403 304.71902
v 738.79663 1687.50391 340.17801
v 705.2124 1687.50403 304.70761
v 738.31482 1562.50391 340.77151
v 609.12732 1812.50391 204.48225
v 570.789 1812.50391 164.06865
v 608.71356 1687.50403 205.0345
v 609.57843 1937.50391 203.92029
v 571.66272 1937.50391 164.06873
v 609.12732 1812.50391 204.48225
v 660.85785 1812.50378 257.83099
v 631.47046 1812.50378 227.92336
v 659.86005 1687.50391 257.83704
v 661.8927 1937.50378 257.82721
v 632.00238 1937.50378 227.36012
v 660.85785 1812.50378 257.83099
v 706.20764 1812.50391 304.70193
v 660.85785 1812.50378 257.83099
v 705.2124 1687.50403 304.70761
v 739.31616 1812.50378 339.5593
v 706.20764 1812.50391 304.70193
v 738.79663 1687.50391 340.17801
v 707.24707 1937.50391 304.69876
v 661.8927 1937.50378 257.82721
v 706.20764 1812.50391 304.70193
v 739.85425 1937.50378 338.9361
v 707.24707 1937.50391 304.69876
v 739.31616 1812.50378 339.5593
v 798.17236 1062.50732 398.14127
v 762.53046 1062.50317 362.69986
v 798.17249 937.50024 398.14124
v 845.00458 1062.50708 445.07782
v 798.17236 1062.50732 398.14127
v 845.0047 937.50055 445.07782
v 795.67731 1187.49915 398.59464
v 760.87311 1187.49841 364.53656
v 798.17236 1062.50732 398.14127
v 842.77966 1187.50146 445.3866
v 795.67731 1187.49915 398.59464
v 845.00458 1062.50708 445.07782
v 871.82495 1062.50525 471.97318
v 845.00458 1062.50708 445.07782
v 871.82501 937.50232 471.97311
v 870.57294 1187.50305 473.2821
v 842.77966 1187.50146 445.3866
v 871.82495 1062.50525 471.97318
v 938.46454 1062.50537 538.90985
v 895.09412 1062.50549 495.43427
v 938.4646 937.50226 538.90985
v 936.81586 1187.50403 539.05426
v 894.08795 1187.50342 496.7001
v 938.46454 1062.50537 538.90985
v 794.38751 1312.50183 398.60809
v 760.35883 1312.50305 365.01288
v 795.67731 1187.49915 398.59464
v 841.08423 1312.50098 445.45349
v 794.38751 1312.50183 398.60809
v 842.77966 1187.50146 445.3866
v 794.41553 1437.50415 398.54318
v 760.52588 1437.50439 364.73843
v 794.38751 1312.50183 398.60809
v 840.61682 1437.50269 445.41382
v 794.41553 1437.50415 398.54318
v 841.08423 1312.50098 445.45349
v 869.55139 1312.50195 474.4028
v 841.08423 1312.50098 445.45349
v 870.57294 1187.50305 473.2821
v 869.20038 1437.5033 474.83542
v 840.61682 1437.50269 445.41382
v 869.55139 1312.50195 474.4028
v 934.99896 1312.5022 539.14423
v 893.12659 1312.5022 497.83212
v 936.81586 1187.50403 539.05426
v 933.94995 1437.50281 539.15375
v 892.66833 1437.50354 498.28384
v 934.99896 1312.5022 539.14423
v 981.04211 1062.50476 581.37421
v 938.46454 1062.50537 538.90985
v 981.04211 937.50281 581.37421
v 980.22955 1187.50427 582.2124
v 936.81586 1187.50403 539.05426
v 981.04211 1062.50476 581.37421
v 979.29712 1312.50281 583.2439
v 934.99896 1312.5022 539.14423
v 980.22955 1187.50427 582.2124
v 978.70862 1437.50281 583.99451
v 933.94995 1437.50281 539.15375
v 979.29712 1312.50281 583.2439
v 795.06592 1562.50439 398.50104
v 760.94733 1562.50427 364.22028
v 794.41553 1437.50415 398.54318
v 840.93506 1562.50354 445.3757
v 795.06592 1562.50439 398.50104
v 840.61682 1437.50269 445.41382
v 795.98395 1687.50427 398.47824
v 761.46466 1687.50403 363.62357
v 795.06592 1562.50439 398.50104
v 841.6582 1687.50378 445.35251
v 795.98395 1687.50427 398.47824
v 840.93506 1562.50354 445.3757
v 869.29694 1562.50378 474.77301
v 840.93506 1562.50354 445.3757
v 869.20038 1437.5033 474.83542
v 869.62811 1687.50391 474.43811
v 841.6582 1687.50378 445.35251
v 869.29694 1562.50378 474.77301
v 933.70569 1562.50366 539.13513
v 892.63898 1562.50415 498.22781
v 933.94995 1437.50281 539.15375
v 934.01563 1687.50391 539.11536
v 892.87372 1687.50427 497.89279
v 933.70569 1562.50366 539.13513
v 797.01984 1812.50415 398.46564
v 762.01965 1812.50391 363.00308
v 795.98395 1687.50427 398.47824
v 842.58264 1812.50378 445.33929
v 797.01984 1812.50415 398.46564
v 841.6582 1687.50378 445.35251
v 798.10785 1937.50403 398.45822
v 762.58844 1937.50391 362.37875
v 797.01984 1812.50415 398.46564
v 843.60657 1937.50378 445.33163
v 798.10785 1937.50403 398.45822
v 842.58264 1812.50378 445.33929
v 870.07721 1812.50391 473.96457
v 842.58264 1812.50378 445.33929
v 869.62811 1687.50391 474.43811
v 870.58514 1937.50378 473.42319
v 843.60657 1937.50378 445.33163
v 870.07721 1812.50391 473.96457
v 934.65887 1812.50403 539.10071
v 893.25562 1812.50427 497.41736
v 934.01563 1687.50391 539.11536
v 935.49329 1937.50403 539.0907
v 893.7168 1937.50415 496.87393
v 934.65887 1812.50403 539.10071
v 978.51453 1562.50317 584.35516
v 933.70569 1562.50366 539.13513
v 978.70862 1437.50281 583.99451
v 978.60791 1687.50354 584.39325
v 934.01563 1687.50391 539.11536
v 978.51453 1562.50317 584.35516
v 978.88177 1812.50366 584.20764
v 934.65887 1812.50403 539.10071
v 978.60791 1687.50354 584.39325
v 979.26312 1937.50378 583.87836
v 935.49329 1937.50403 539.0907
v 978.88177 1812.50366 584.20764
v 1027.05969 187.50352 632.85553
v 1001.77399 187.50374 607.63788
v 1027.6084 62.5035 632.84613
v 1073.82214 187.50386 679.72839
v 1027.05969 187.50352 632.85553
v 1074.18823 62.50377 679.72009
v 1111.0271 187.50392 717.36273
v 1073.82214 187.50386 679.72839
v 1111.1687 62.50384 717.27301
v 1026.80591 312.50366 632.86682
v 1001.59271 312.50381 607.82324
v 1027.05969 187.50352 632.85553
v 1026.99402 437.50403 632.87695
v 1001.63702 437.50406 607.7851
v 1026.80591 312.50366 632.86682
v 1073.76794 312.50403 679.73718
v 1026.80591 312.50366 632.86682
v 1073.82214 187.50386 679.72839
v 1111.04834 312.50406 717.27374
v 1073.76794 312.50403 679.73718
v 1111.0271 187.50392 717.36273
v 1074.14563 437.5043 679.74274
v 1026.99402 437.50403 632.87695
v 1073.76794 312.50403 679.73718
v 1111.28906 437.50424 716.95502
v 1074.14563 437.5043 679.74274
v 1111.04834 312.50406 717.27374
v 1027.78137 562.50446 632.87653
v 1002.0061 562.50446 607.42377
v 1026.99402 437.50403 632.87695
v 1029.21741 687.50433 632.84741
v 1002.75714 687.50446 606.672
v 1027.78137 562.50446 632.87653
v 1075.05701 562.50446 679.73645
v 1027.78137 562.50446 632.87653
v 1074.14563 437.5043 679.74274
v 1111.79285 562.50427 716.37622
v 1075.05701 562.50446 679.73645
v 1111.28906 437.50424 716.95502
v 1076.48022 687.50409 679.70575
v 1029.21741 687.50433 632.84741
v 1075.05701 562.50446 679.73645
v 1112.5376 687.50391 715.57642
v 1076.48022 687.50409 679.70575
v 1111.79285 562.50427 716.37622
v 1031.005 812.50317 632.77698
v 1003.75873 812.50336 605.64581
v 1029.21741 687.50433 632.84741
v 1032.34265 937.50299 632.69745
v 1004.54901 937.50305 604.82104
v 1031.005 812.50317 632.77698
v 1078.10059 812.50317 679.64691
v 1031.005 812.50317 632.77698
v 1076.48022 687.50409 679.70575
v 1113.36023 812.5033 714.72876
v 1078.10059 812.50317 679.64691
v 1112.5376 687.50391 715.57642
v 1079.24927 937.50317 679.58728
v 1032.34265 937.50299 632.69745
v 1078.10059 812.50317 679.64691
v 1113.93457 937.50336 714.15051
v 1079.24927 937.50317 679.58728
v 1113.36023 812.5033 714.72876
v 1032.34265 1062.50464 632.69745
v 1004.54895 1062.50452 604.82111
v 1032.34265 937.50299 632.69745
v 1031.00488 1187.50439 632.77698
v 1003.75867 1187.50427 605.64587
v 1032.34265 1062.50464 632.69745
v 1079.24915 1062.50439 679.58728
v 1032.34265 1062.50464 632.69745
v 1079.24927 937.50317 679.58728
v 1113.93457 1062.50427 714.15057
v 1079.24915 1062.50439 679.58728
v 1113.93457 937.50336 714.15051
v 1078.10059 1187.50439 679.64691
v 1031.00488 1187.50439 632.77698
v 1079.24915 1062.50439 679.58728
v 1113.36011 1187.50427 714.72876
v 1078.10059 1187.50439 679.64691
v 1113.93457 1062.50427 714.15057
v 1029.21729 1312.5033 632.84741
v 1002.75708 1312.50317 606.67206
v 1031.00488 1187.50439 632.77698
v 1027.78137 1437.50317 632.87653
v 1002.00604 1437.50317 607.42383
v 1029.21729 1312.5033 632.84741
v 1076.4801 1312.50354 679.70575
v 1029.21729 1312.5033 632.84741
v 1078.10059 1187.50439 679.64691
v 1112.5376 1312.50366 715.57648
v 1076.4801 1312.50354 679.70575
v 1113.36011 1187.50427 714.72876
v 1075.05688 1437.50317 679.73645
v 1027.78137 1437.50317 632.87653
v 1076.4801 1312.50354 679.70575
v 1111.79272 1437.5033 716.37622
v 1075.05688 1437.50317 679.73645
v 1112.5376 1312.50366 715.57648
v 1026.99402 1562.50354 632.87695
v 1001.63702 1562.50354 607.78516
v 1027.78137 1437.50317 632.87653
v 1026.80591 1687.50391 632.86682
v 1001.59271 1687.50378 607.82324
v 1026.99402 1562.50354 632.87695
v 1074.14551 1562.5033 679.74274
v 1026.99402 1562.50354 632.87695
v 1075.05688 1437.50317 679.73645
v 1111.28906 1562.50342 716.95508
v 1074.14551 1562.5033 679.74274
v 1111.79272 1437.5033 716.37622
v 1073.76794 1687.50354 679.73718
v 1026.80591 1687.50391 632.86682
v 1074.14551 1562.5033 679.74274
v 1111.04834 1687.50354 717.2738
v 1073.76794 1687.50354 679.73718
v 1111.28906 1562.50342 716.95508
v 1027.05969 1812.50403 632.85553
v 1001.77399 1812.50391 607.63788
v 1026.80591 1687.50391 632.86682
v 1027.6084 1937.50415 632.84613
v 1002.09851 1937.50391 607.3092
v 1027.05969 1812.50403 632.85553
v 1073.82214 1812.50378 679.72839
v 1027.05969 1812.50403 632.85553
v 1073.76794 1687.50354 679.73718
v 1111.0271 1812.50366 717.36273
v 1073.82214 1812.50378 679.72839
v 1111.04834 1687.50354 717.2738
v 1074.18823 1937.50378 679.72009
v 1027.6084 1937.50415 632.84613
v 1073.82214 1812.50378 679.72839
v 1111.1687 1937.50378 717.27295
v 1074.18823 1937.50378 679.72009
v 1111.0271 1812.50366 717.36273
v 436.10376 62.50381 23.43872
v 479.36826 62.5038 68.67305
v 435.27225 187.50385 23.43563
v 435.27225 187.50385 23.43563
v 478.96255 187.50386 69.14776
v 434.46097 312.50391 23.42952
v 434.46097 312.50391 23.42952
v 483.04535 325.00409 74.428
v 433.63889 437.50403 23.41741
v 483.04535 325.00409 74.428
v 500.90802 375.00381 93.7538
v 485.64716 437.50464 77.92499
v 433.63889 437.50403 23.41741
v 485.64716 437.50464 77.92499
v 432.71338 562.50446 23.39441
v 485.64716 437.50464 77.92499
v 500.33911 458.33713 93.71623
v 485.14075 544.45142 78.05043
v 432.71338 562.50446 23.39441
v 485.14075 544.45142 78.05043
v 431.45221 687.50531 23.36172
v 485.14075 544.45142 78.05043
v 499.89529 553.33771 93.87463
v 476.73944 687.50891 70.21459
v 431.45221 687.50531 23.36172
v 476.73944 687.50891 70.21459
v 429.43744 812.50507 23.39547
v 476.73944 687.50891 70.21459
v 499.46475 687.50433 94.35364
v 475.21027 812.51068 70.18736
v 429.43744 812.50507 23.39547
v 475.21027 812.51068 70.18736
v 426.8855 937.50537 23.8078
v 475.21027 812.51068 70.18736
v 498.88544 812.50677 94.98118
v 472.6622 937.51392 70.70638
v 426.8855 937.50537 23.8078
v 472.6622 937.51392 70.70638
v 426.88562 1062.5022 23.80777
v 472.6622 937.51392 70.70638
v 497.53397 937.51215 96.37675
v 472.66235 1062.49377 70.70631
v 501.6373 62.50378 92.1174
v 526.22083 62.50385 117.19726
v 501.16486 187.50377 92.59621
v 501.16486 187.50377 92.59621
v 525.32617 187.50386 117.19792
v 500.70984 312.50378 93.05418
v 526.22083 62.50385 117.19726
v 571.66266 62.50374 164.06873
v 525.32617 187.50386 117.19792
v 571.66266 62.50374 164.06873
v 609.57843 62.5037 203.92033
v 570.789 187.50372 164.06865
v 525.32617 187.50386 117.19792
v 570.789 187.50372 164.06865
v 524.49005 312.50385 117.19789
v 570.789 187.50372 164.06865
v 609.12732 187.50365 204.48228
v 569.99359 312.50372 164.06787
v 500.70984 312.50378 93.05418
v 524.49005 312.50385 117.19789
v 500.27438 437.50378 93.4874
v 500.27438 437.50378 93.4874
v 518.98828 450.00375 112.48427
v 499.84851 535.42114 93.72063
v 524.49005 312.50385 117.19789
v 569.99359 312.50372 164.06787
v 518.98828 450.00375 112.48427
v 569.99359 312.50372 164.06787
v 608.71356 312.50357 205.03453
v 569.31879 437.50369 164.0652
v 518.98828 450.00375 112.48427
v 569.31879 437.50369 164.0652
v 513.19379 555.95581 107.23289
v 569.31879 437.50369 164.0652
v 608.35913 437.50345 205.56883
v 568.83215 562.50366 164.05711
v 632.00238 62.5038 227.36015
v 661.89264 62.50377 257.82721
v 631.4704 187.5038 227.9234
v 661.89264 62.50377 257.82721
v 707.24701 62.50369 304.69876
v 660.85779 187.50377 257.83099
v 631.4704 187.5038 227.9234
v 660.85779 187.50377 257.83099
v 630.95142 312.50378 228.47797
v 660.85779 187.50377 257.83099
v 706.20758 187.50366 304.70193
v 659.85999 312.50375 257.83704
v 707.24701 62.50369 304.69876
v 739.85419 62.50378 338.93613
v 706.20758 187.50366 304.70193
v 706.20758 187.50366 304.70193
v 739.3161 187.50375 339.55933
v 705.21234 312.5036 304.70761
v 630.95142 312.50378 228.47797
v 659.85999 312.50375 257.83704
v 630.45544 437.50378 229.01666
v 659.85999 312.50375 257.83704
v 705.21234 312.5036 304.70761
v 658.92639 437.50366 257.84775
v 630.45544 437.50378 229.01666
v 658.92639 437.50366 257.84775
v 629.99841 562.50372 229.52893
v 658.92639 437.50366 257.84775
v 704.30011 437.50354 304.71902
v 658.10193 562.50336 257.86969
v 705.21234 312.5036 304.70761
v 738.79663 312.50375 340.17804
v 704.30011 437.50354 304.71902
v 704.30011 437.50354 304.71902
v 738.31476 437.50375 340.77155
v 703.54773 562.5036 304.74548
v 762.58844 62.50372 362.37881
v 798.10779 62.50361 398.45825
v 762.01965 187.50366 363.00311
v 762.01965 187.50366 363.00311
v 797.01978 187.50351 398.46564
v 761.46466 312.50357 363.6236
v 761.46466 312.50357 363.6236
v 795.98389 312.50336 398.47824
v 760.94727 437.50339 364.22031
v 760.94727 437.50339 364.22031
v 795.06586 437.50317 398.50104
v 760.52588 562.50323 364.73846
v 499.84851 535.42114 93.72063
v 513.19379 555.95581 107.23289
v 499.24622 625.00378 93.7538
v 513.19379 555.95581 107.23289
v 568.83215 562.50366 164.05711
v 518.37555 675.00153 112.99143
v 568.83215 562.50366 164.05711
v 608.10144 562.50323 206.07214
v 568.64178 687.50391 164.03145
v 518.37555 675.00153 112.99143
v 568.64178 687.50391 164.03145
v 523.21924 812.49628 118.45055
v 568.64178 687.50391 164.03145
v 608.00775 687.50293 206.522
v 568.86786 812.50586 163.95078
v 523.21924 812.49628 118.45055
v 568.86786 812.50586 163.95078
v 522.84363 937.49487 119.77108
v 568.86786 812.50586 163.95078
v 608.1864 812.50299 206.8748
v 569.17987 937.50116 163.93663
v 522.84363 937.49487 119.77108
v 569.17987 937.50116 163.93663
v 522.84369 1062.5127 119.77098
v 569.17987 937.50116 163.93663
v 608.58429 937.50342 207.04759
v 569.17987 1062.50647 163.93661
v 629.99841 562.50372 229.52893
v 658.10193 562.50336 257.86969
v 629.60638 687.50366 229.99908
v 658.10193 562.50336 257.86969
v 703.54773 562.5036 304.74548
v 657.46021 687.5022 257.92361
v 629.60638 687.50366 229.99908
v 657.46021 687.5022 257.92361
v 629.31989 812.50354 230.40028
v 657.46021 687.5022 257.92361
v 703.12378 687.50488 304.81366
v 657.11298 812.50177 258.06622
v 703.54773 562.5036 304.74548
v 737.91052 562.50397 341.28387
v 703.12378 687.50488 304.81366
v 703.12378 687.50488 304.81366
v 737.6814 687.50543 341.55249
v 703.42993 812.51324 304.9436
v 629.31989 812.50354 230.40028
v 657.11298 812.50177 258.06622
v 629.23187 937.5036 230.61176
v 657.11298 812.50177 258.06622
v 703.42993 812.51324 304.9436
v 657.3576 937.4978 258.03992
v 629.23187 937.5036 230.61176
v 657.3576 937.4978 258.03992
v 629.23187 1062.50403 230.61176
v 657.3576 937.4978 258.03992
v 705.19489 937.50647 304.41226
v 657.35754 1062.50977 258.03995
v 703.42993 812.51324 304.9436
v 737.92975 812.51105 341.11456
v 705.19489 937.50647 304.41226
v 705.19489 937.50647 304.41226
v 739.40106 937.50525 339.25995
v 705.19476 1062.5011 304.41235
v 760.52588 562.50323 364.73846
v 794.41547 562.50342 398.54318
v 760.35883 687.50458 365.01288
v 760.35883 687.50458 365.01288
v 794.38757 687.50574 398.60809
v 760.87317 812.50916 364.5365
v 760.87317 812.50916 364.5365
v 795.67749 812.50842 398.59464
v 762.53058 937.50446 362.69977
v 762.53058 937.50446 362.69977
v 798.17249 937.50024 398.14124
v 762.53046 1062.50317 362.69986
v 798.10779 62.50361 398.45825
v 843.60651 62.50376 445.33163
v 797.01978 187.50351 398.46564
v 843.60651 62.50376 445.33163
v 870.58508 62.50376 473.42322
v 842.58258 187.50378 445.33929
v 797.01978 187.50351 398.46564
v 842.58258 187.50378 445.33929
v 795.98389 312.50336 398.47824
v 842.58258 187.50378 445.33929
v 870.07715 187.50374 473.9646
v 841.65814 312.50385 445.35251
v 893.7168 62.50348 496.87396
v 935.49323 62.50362 539.0907
v 893.25555 187.50339 497.41739
v 935.49323 62.50362 539.0907
v 979.26312 62.50386 583.87836
v 934.65887 187.5036 539.10071
v 893.25555 187.50339 497.41739
v 934.65887 187.5036 539.10071
v 892.87366 312.5033 497.89282
v 934.65887 187.5036 539.10071
v 978.88177 187.50394 584.20764
v 934.01563 312.50366 539.11536
v 795.98389 312.50336 398.47824
v 841.65814 312.50385 445.35251
v 795.06586 437.50317 398.50104
v 841.65814 312.50385 445.35251
v 869.62805 312.50372 474.43811
v 840.935 437.50409 445.3757
v 795.06586 437.50317 398.50104
v 840.935 437.50409 445.3757
v 794.41547 562.50342 398.54318
v 840.935 437.50409 445.3757
v 869.29688 437.50381 474.77304
v 840.61682 562.50488 445.41382
v 892.87366 312.5033 497.89282
v 934.01563 312.50366 539.11536
v 892.63898 437.50342 498.22784
v 934.01563 312.50366 539.11536
v 978.60785 312.50409 584.39325
v 933.70569 437.504 539.13513
v 892.63898 437.50342 498.22784
v 933.70569 437.504 539.13513
v 892.66833 562.50409 498.28384
v 933.70569 437.504 539.13513
v 978.51453 437.50439 584.35516
v 933.94995 562.50476 539.15375
v 794.41547 562.50342 398.54318
v 840.61682 562.50488 445.41382
v 794.38757 687.50574 398.60809
v 840.61682 562.50488 445.41382
v 869.20038 562.50433 474.83542
v 841.08429 687.50665 445.45349
v 794.38757 687.50574 398.60809
v 841.08429 687.50665 445.45349
v 795.67749 812.50842 398.59464
v 841.08429 687.50665 445.45349
v 869.55139 687.50562 474.40277
v 842.77979 812.5061 445.3866
v 892.66833 562.50409 498.28384
v 933.94995 562.50476 539.15375
v 893.12665 687.50537 497.83209
v 933.94995 562.50476 539.15375
v 978.70862 562.50482 583.99451
v 934.99902 687.50537 539.14417
v 893.12665 687.50537 497.83209
v 934.99902 687.50537 539.14417
v 894.08801 812.50421 496.70001
v 934.99902 687.50537 539.14417
v 979.29718 687.50476 583.24384
v 936.81598 812.5036 539.05426
v 795.67749 812.50842 398.59464
v 842.77979 812.5061 445.3866
v 798.17249 937.50024 398.14124
v 842.77979 812.5061 445.3866
v 870.573 812.50452 473.28201
v 845.0047 937.50055 445.07782
v 798.17249 937.50024 398.14124
v 845.0047 937.50055 445.07782
v 798.17236 1062.50732 398.14127
v 845.0047 937.50055 445.07782
v 871.82501 937.50232 471.97311
v 845.00458 1062.50708 445.07782
v 894.08801 812.50421 496.70001
v 936.81598 812.5036 539.05426
v 895.09418 937.50214 495.4342
v 936.81598 812.5036 539.05426
v 980.22961 812.50336 582.21234
v 938.4646 937.50226 538.90985
v 895.09418 937.50214 495.4342
v 938.4646 937.50226 538.90985
v 895.09412 1062.50549 495.43427
v 938.4646 937.50226 538.90985
v 981.04211 937.50281 581.37421
v 938.46454 1062.50537 538.90985
v 426.88562 1062.5022 23.80777
v 472.66235 1062.49377 70.70631
v 429.43759 1187.50256 23.39546
v 472.66235 1062.49377 70.70631
v 497.53409 1062.49548 96.37663
v 475.21039 1187.49695 70.18735
v 429.43759 1187.50256 23.39546
v 475.21039 1187.49695 70.18735
v 431.4523 1312.50232 23.36172
v 475.21039 1187.49695 70.18735
v 498.8855 1187.50085 94.98112
v 476.7395 1312.49866 70.21459
v 431.4523 1312.50232 23.36172
v 476.7395 1312.49866 70.21459
v 432.71344 1437.50317 23.39441
v 476.7395 1312.49866 70.21459
v 499.46475 1312.5033 94.35361
v 485.14078 1455.55493 78.05042
v 432.71344 1437.50317 23.39441
v 485.14078 1455.55493 78.05042
v 433.63892 1562.50354 23.41741
v 485.14078 1455.55493 78.05042
v 499.89529 1446.66833 93.87461
v 485.64719 1562.50293 77.92497
v 433.63892 1562.50354 23.41741
v 485.64719 1562.50293 77.92497
v 434.46103 1687.50366 23.42952
v 485.64719 1562.50293 77.92497
v 500.33914 1541.67053 93.71622
v 483.04538 1675.00354 74.42798
v 434.46103 1687.50366 23.42952
v 483.04538 1675.00354 74.42798
v 435.27231 1812.50378 23.43563
v 435.27231 1812.50378 23.43563
v 478.96255 1812.50378 69.14773
v 436.10379 1937.50378 23.43872
v 522.84369 1062.5127 119.77098
v 569.17987 1062.50647 163.93661
v 523.21924 1187.51135 118.45049
v 569.17987 1062.50647 163.93661
v 608.58429 1062.50415 207.04759
v 568.8678 1187.50171 163.95079
v 523.21924 1187.51135 118.45049
v 568.8678 1187.50171 163.95079
v 518.37555 1325.0061 112.9914
v 568.8678 1187.50171 163.95079
v 608.1864 1187.50464 206.87479
v 568.64178 1312.50366 164.03145
v 499.84851 1464.58459 93.72061
v 518.37555 1325.0061 112.9914
v 499.24628 1375.00378 93.7538
v 499.84851 1464.58459 93.72061
v 513.19385 1444.05078 107.23287
v 500.27441 1562.50378 93.48738
v 518.37555 1325.0061 112.9914
v 568.64178 1312.50366 164.03145
v 513.19385 1444.05078 107.23287
v 568.64178 1312.50366 164.03145
v 608.00775 1312.50464 206.52197
v 568.83215 1437.50391 164.05711
v 513.19385 1444.05078 107.23287
v 568.83215 1437.50391 164.05711
v 518.98834 1550.00378 112.48426
v 568.83215 1437.50391 164.05711
v 608.1015 1437.50439 206.07211
v 569.31879 1562.50391 164.0652
v 629.23187 1062.50403 230.61176
v 657.35754 1062.50977 258.03995
v 629.31989 1187.50403 230.40027
v 657.35754 1062.50977 258.03995
v 705.19476 1062.5011 304.41235
v 657.11298 1187.50586 258.06622
v 629.31989 1187.50403 230.40027
v 657.11298 1187.50586 258.06622
v 629.60638 1312.50391 229.99905
v 657.11298 1187.50586 258.06622
v 703.42987 1187.49438 304.94357
v 657.46021 1312.50537 257.92361
v 705.19476 1062.5011 304.41235
v 739.40094 1062.50232 339.2601
v 703.42987 1187.49438 304.94357
v 703.42987 1187.49438 304.94357
v 737.92969 1187.49658 341.11462
v 703.12384 1312.50269 304.81366
v 629.60638 1312.50391 229.99905
v 657.46021 1312.50537 257.92361
v 629.99847 1437.50391 229.5289
v 657.46021 1312.50537 257.92361
v 703.12384 1312.50269 304.81366
v 658.10199 1437.50427 257.86969
v 629.99847 1437.50391 229.5289
v 658.10199 1437.50427 257.86969
v 630.45544 1562.50378 229.01663
v 658.10199 1437.50427 257.86969
v 703.54779 1437.50403 304.74545
v 658.92645 1562.50391 257.84775
v 703.12384 1312.50269 304.81366
v 737.6814 1312.5022 341.55249
v 703.54779 1437.50403 304.74545
v 703.54779 1437.50403 304.74545
v 737.91052 1437.50366 341.28384
v 704.30017 1562.50403 304.71902
v 762.53046 1062.50317 362.69986
v 798.17236 1062.50732 398.14127
v 760.87311 1187.49841 364.53656
v 760.87311 1187.49841 364.53656
v 795.67731 1187.49915 398.59464
v 760.35883 1312.50305 365.01288
v 760.35883 1312.50305 365.01288
v 794.38751 1312.50183 398.60809
v 760.52588 1437.50439 364.73843
v 760.52588 1437.50439 364.73843
v 794.41553 1437.50415 398.54318
v 760.94733 1562.50427 364.22028
v 500.27441 1562.50378 93.48738
v 518.98834 1550.00378 112.48426
v 500.70987 1687.50378 93.05415
v 500.70987 1687.50378 93.05415
v 524.49011 1687.50378 117.19789
v 501.16489 1812.50378 92.59619
v 518.98834 1550.00378 112.48426
v 569.31879 1562.50391 164.0652
v 524.49011 1687.50378 117.19789
v 569.31879 1562.50391 164.0652
v 608.35913 1562.50415 205.5688
v 569.99365 1687.50391 164.06787
v 524.49011 1687.50378 117.19789
v 569.99365 1687.50391 164.06787
v 525.32623 1812.50378 117.19792
v 569.99365 1687.50391 164.06787
v 608.71356 1687.50403 205.0345
v 570.789 1812.50391 164.06865
v 501.16489 1812.50378 92.59619
v 525.32623 1812.50378 117.19792
v 501.63733 1937.50378 92.11737
v 525.32623 1812.50378 117.19792
v 570.789 1812.50391 164.06865
v 526.22089 1937.50378 117.19726
v 570.789 1812.50391 164.06865
v 609.12732 1812.50391 204.48225
v 571.66272 1937.50391 164.06873
v 630.45544 1562.50378 229.01663
v 658.92645 1562.50391 257.84775
v 630.95148 1687.50378 228.47794
v 658.92645 1562.50391 257.84775
v 704.30017 1562.50403 304.71902
v 659.86005 1687.50391 257.83704
v 630.95148 1687.50378 228.47794
v 659.86005 1687.50391 257.83704
v 631.47046 1812.50378 227.92336
v 659.86005 1687.50391 257.83704
v 705.2124 1687.50403 304.70761
v 660.85785 1812.50378 257.83099
v 704.30017 1562.50403 304.71902
v 738.31482 1562.50391 340.77151
v 705.2124 1687.50403 304.70761
v 705.2124 1687.50403 304.70761
v 738.79663 1687.50391 340.17801
v 706.20764 1812.50391 304.70193
v 631.47046 1812.50378 227.92336
v 660.85785 1812.50378 257.83099
v 632.00238 1937.50378 227.36012
v 660.85785 1812.50378 257.83099
v 706.20764 1812.50391 304.70193
v 661.8927 1937.50378 257.82721
v 706.20764 1812.50391 304.70193
v 739.31616 1812.50378 339.5593
v 707.24707 1937.50391 304.69876
v 760.94733 1562.50427 364.22028
v 795.06592 1562.50439 398.50104
v 761.46466 1687.50403 363.62357
v 761.46466 1687.50403 363.62357
v 795.98395 1687.50427 398.47824
v 762.01965 1812.50391 363.00308
v 762.01965 1812.50391 363.00308
v 797.01984 1812.50415 398.46564
v 762.58844 1937.50391 362.37875
v 798.17236 1062.50732 398.14127
v 845.00458 1062.50708 445.07782
v 795.67731 1187.49915 398.59464
v 845.00458 1062.50708 445.07782
v 871.82495 1062.50525 471.97318
v 842.77966 1187.50146 445.3866
v 795.67731 1187.49915 398.59464
v 842.77966 1187.50146 445.3866
v 794.38751 1312.50183 398.60809
v 842.77966 1187.50146 445.3866
v 870.57294 1187.50305 473.2821
v 841.08423 1312.50098 445.45349
v 895.09412 1062.50549 495.43427
v 938.46454 1062.50537 538.90985
v 894.08795 1187.50342 496.7001
v 938.46454 1062.50537 538.90985
v 981.04211 1062.50476 581.37421
v 936.81586 1187.50403 539.05426
v 894.08795 1187.50342 496.7001
v 936.81586 1187.50403 539.05426
v 893.12659 1312.5022 497.83212
v 936.81586 1187.50403 539.05426
v 980.22955 1187.50427 582.2124
v 934.99896 1312.5022 539.14423
v 794.38751 1312.50183 398.60809
v 841.08423 1312.50098 445.45349
v 794.41553 1437.50415 398.54318
v 841.08423 1312.50098 445.45349
v 869.55139 1312.50195 474.4028
v 840.61682 1437.50269 445.41382
v 794.41553 1437.50415 398.54318
v 840.61682 1437.50269 445.41382
v 795.06592 1562.50439 398.50104
v 840.61682 1437.50269 445.41382
v 869.20038 1437.5033 474.83542
v 840.93506 1562.50354 445.3757
v 893.12659 1312.5022 497.83212
v 934.99896 1312.5022 539.14423
v 892.66833 1437.50354 498.28384
v 934.99896 1312.5022 539.14423
v 979.29712 1312.50281 583.2439
v 933.94995 1437.50281 539.15375
v 892.66833 1437.50354 498.28384
v 933.94995 1437.50281 539.15375
v 892.63898 1562.50415 498.22781
v 933.94995 1437.50281 539.15375
v 978.70862 1437.50281 583.99451
v 933.70569 1562.50366 539.13513
v 795.06592 1562.50439 398.50104
v 840.93506 1562.50354 445.3757
v 795.98395 1687.50427 398.47824
v 840.93506 1562.50354 445.3757
v 869.29694 1562.50378 474.77301
v 841.6582 1687.50378 445.35251
v 795.98395 1687.50427 398.47824
v 841.6582 1687.50378 445.35251
v 797.01984 1812.50415 398.46564
v 841.6582 1687.50378 445.35251
v 869.62811 1687.50391 474.43811
v 842.58264 1812.50378 445.33929
v 892.63898 1562.50415 498.22781
v 933.70569 1562.50366 539.13513
v 892.87372 1687.50427 497.89279
v 933.70569 1562.50366 539.13513
v 978.51453 1562.50317 584.35516
v 934.01563 1687.50391 539.11536
v 892.87372 1687.50427 497.89279
v 934.01563 1687.50391 539.11536
v 893.25562 1812.50427 497.41736
v 934.01563 1687.50391 539.11536
v 978.60791 1687.50354 584.39325
v 934.65887 1812.50403 539.10071
v 797.01984 1812.50415 398.46564
v 842.58264 1812.50378 445.33929
v 798.10785 1937.50403 398.45822
v 842.58264 1812.50378 445.33929
v 870.07721 1812.50391 473.96457
v 843.60657 1937.50378 445.33163
v 893.25562 1812.50427 497.41736
v 934.65887 1812.50403 539.10071
v 893.7168 1937.50415 496.87393
v 934.65887 1812.50403 539.10071
v 978.88177 1812.50366 584.20764
v 935.49329 1937.50403 539.0907
v 1002.09851 62.50372 607.30927
v 1027.6084 62.5035 632.84613
v 1001.77399 187.50374 607.63788
v 1027.6084 62.5035 632.84613
v 1074.18823 62.50377 679.72009
v 1027.05969 187.50352 632.85553
v 1001.77399 187.50374 607.63788
v 1027.05969 187.50352 632.85553
v 1001.59271 312.50381 607.82324
v 1027.05969 187.50352 632.85553
v 1073.82214 187.50386 679.72839
v 1026.80591 312.50366 632.86682
v 1074.18823 62.50377 679.72009
v 1111.1687 62.50384 717.27301
v 1073.82214 187.50386 679.72839
v 1073.82214 187.50386 679.72839
v 1111.0271 187.50392 717.36273
v 1073.76794 312.50403 679.73718
v 1001.59271 312.50381 607.82324
v 1026.80591 312.50366 632.86682
v 1001.63702 437.50406 607.7851
v 1026.80591 312.50366 632.86682
v 1073.76794 312.50403 679.73718
v 1026.99402 437.50403 632.87695
v 1001.63702 437.50406 607.7851
v 1026.99402 437.50403 632.87695
v 1002.0061 562.50446 607.42377
v 1026.99402 437.50403 632.87695
v 1074.14563 437.5043 679.74274
v 1027.78137 562.50446 632.87653
v 1073.76794 312.50403 679.73718
v 1111.04834 312.50406 717.27374
v 1074.14563 437.5043 679.74274
v 1074.14563 437.5043 679.74274
v 1111.28906 437.50424 716.95502
v 1075.05701 562.50446 679.73645
v 1002.0061 562.50446 607.42377
v 1027.78137 562.50446 632.87653
v 1002.75714 687.50446 606.672
v 1027.78137 562.50446 632.87653
v 1075.05701 562.50446 679.73645
v 1029.21741 687.50433 632.84741
v 1002.75714 687.50446 606.672
v 1029.21741 687.50433 632.84741
v 1003.75873 812.50336 605.64581
v 1029.21741 687.50433 632.84741
v 1076.48022 687.50409 679.70575
v 1031.005 812.50317 632.77698
v 1075.05701 562.50446 679.73645
v 1111.79285 562.50427 716.37622
v 1076.48022 687.50409 679.70575
v 1076.48022 687.50409 679.70575
v 1112.5376 687.50391 715.57642
v 1078.10059 812.50317 679.64691
v 1003.75873 812.50336 605.64581
v 1031.005 812.50317 632.77698
v 1004.54901 937.50305 604.82104
v 1031.005 812.50317 632.77698
v 1078.10059 812.50317 679.64691
v 1032.34265 937.50299 632.69745
v 1004.54901 937.50305 604.82104
v 1032.34265 937.50299 632.69745
v 1004.54895 1062.50452 604.82111
v 1032.34265 937.50299 632.69745
v 1079.24927 937.50317 679.58728
v 1032.34265 1062.50464 632.69745
v 1078.10059 812.50317 679.64691
v 1113.36023 812.5033 714.72876
v 1079.24927 937.50317 679.58728
v 1079.24927 937.50317 679.58728
v 1113.93457 937.50336 714.15051
v 1079.24915 1062.50439 679.58728
v 1004.54895 1062.50452 604.82111
v 1032.34265 1062.50464 632.69745
v 1003.75867 1187.50427 605.64587
v 1032.34265 1062.50464 632.69745
v 1079.24915 1062.50439 679.58728
v 1031.00488 1187.50439 632.77698
v 1003.75867 1187.50427 605.64587
v 1031.00488 1187.50439 632.77698
v 1002.75708 1312.50317 606.67206
v 1031.00488 1187.50439 632.77698
v 1078.10059 1187.50439 679.64691
v 1029.21729 1312.5033 632.84741
v 1079.24915 1062.50439 679.58728
v 1113.93457 1062.50427 714.15057
v 1078.10059 1187.50439 679.64691
v 1078.10059 1187.50439 679.64691
v 1113.36011 1187.50427 714.72876
v 1076.4801 1312.50354 679.70575
v 1002.75708 1312.50317 606.67206
v 1029.21729 1312.5033 632.84741
v 1002.00604 1437.50317 607.42383
v 1029.21729 1312.5033 632.84741
v 1076.4801 1312.50354 679.70575
v 1027.78137 1437.50317 632.87653
v 1002.00604 1437.50317 607.42383
v 1027.78137 1437.50317 632.87653
v 1001.63702 1562.50354 607.78516
v 1027.78137 1437.50317 632.87653
v 1075.05688 1437.50317 679.73645
v 1026.99402 1562.50354 632.87695
v 1076.4801 1312.50354 679.70575
v 1112.5376 1312.50366 715.57648
v 1075.05688 1437.50317 679.73645
v 1075.05688 1437.50317 679.73645
v 1111.79272 1437.5033 716.37622
v 1074.14551 1562.5033 679.74274
v 1001.63702 1562.50354 607.78516
v 1026.99402 1562.50354 632.87695
v 1001.59271 1687.50378 607.82324
v 1026.99402 1562.50354 632.87695
v 1074.14551 1562.5033 679.74274
v 1026.80591 1687.50391 632.86682
v 1001.59271 1687.50378 607.82324
v 1026.80591 1687.50391 632.86682
v 1001.77399 1812.50391 607.63788
v 1026.80591 1687.50391 632.86682
v 1073.76794 1687.50354 679.73718
v 1027.05969 1812.50403 632.85553
v 1074.14551 1562.5033 679.74274
v 1111.28906 1562.50342 716.95508
v 1073.76794 1687.50354 679.73718
v 1073.76794 1687.50354 679.73718
v 1111.04834 1687.50354 717.2738
v 1073.82214 1812.50378 679.72839
v 1001.77399 1812.50391 607.63788
v 1027.05969 1812.50403 632.85553
v 1002.09851 1937.50391 607.3092
v 1027.05969 1812.50403 632.85553
v 1073.82214 1812.50378 679.72839
v 1027.6084 1937.50415 632.84613
v 1073.82214 1812.50378 679.72839
v 1111.0271 1812.50366 717.36273
v 1074.18823 1937.50378 679.72009
v 499.89529 1446.66833 93.87461
v 513.19385 1444.05078 107.23287
v 499.84851 1464.58459 93.72061
v 513.19379 555.95581 107.23289
v 499.84851 535.42114 93.72063
v 499.89529 553.33771 93.87463
v 499.84851 1464.58459 93.72061
v 485.14078 1455.55493 78.05042
v 499.89529 1446.66833 93.87461
v 485.14075 544.45142 78.05043
v 499.89529 553.33771 93.87463
v 499.84851 535.42114 93.72063
v 478.96255 187.50386 69.14776
v 501.6373 62.50378 92.1174
v 501.16486 187.50377 92.59621
v 483.04535 325.00409 74.428
v 501.16486 187.50377 92.59621
v 500.70984 312.50378 93.05418
v 485.64716 437.50464 77.92499
v 500.70984 312.50378 93.05418
v 500.27438 437.50378 93.4874
v 609.12732 187.50365 204.48228
v 632.00238 62.5038 227.36015
v 631.4704 187.5038 227.9234
v 608.71356 312.50357 205.03453
v 631.4704 187.5038 227.9234
v 630.95142 312.50378 228.47797
v 608.35913 437.50345 205.56883
v 630.95142 312.50378 228.47797
v 630.45544 437.50378 229.01666
v 739.3161 187.50375 339.55933
v 762.58844 62.50372 362.37881
v 762.01965 187.50366 363.00311
v 738.79663 312.50375 340.17804
v 762.01965 187.50366 363.00311
v 761.46466 312.50357 363.6236
v 738.31476 437.50375 340.77155
v 761.46466 312.50357 363.6236
v 760.94727 437.50339 364.22031
v 485.14075 544.45142 78.05043
v 500.27438 437.50378 93.4874
v 499.84851 535.42114 93.72063
v 499.89529 553.33771 93.87463
v 518.98828 450.00375 112.48427
v 513.19379 555.95581 107.23289
v 499.46475 687.50433 94.35364
v 513.19379 555.95581 107.23289
v 518.37555 675.00153 112.99143
v 498.88544 812.50677 94.98118
v 518.37555 675.00153 112.99143
v 523.21924 812.49628 118.45055
v 497.53397 937.51215 96.37675
v 523.21924 812.49628 118.45055
v 522.84363 937.49487 119.77108
v 608.10144 562.50323 206.07214
v 630.45544 437.50378 229.01666
v 629.99841 562.50372 229.52893
v 608.00775 687.50293 206.522
v 629.99841 562.50372 229.52893
v 629.60638 687.50366 229.99908
v 608.1864 812.50299 206.8748
v 629.60638 687.50366 229.99908
v 629.31989 812.50354 230.40028
v 608.58429 937.50342 207.04759
v 629.31989 812.50354 230.40028
v 629.23187 937.5036 230.61176
v 737.91052 562.50397 341.28387
v 760.94727 437.50339 364.22031
v 760.52588 562.50323 364.73846
v 737.6814 687.50543 341.55249
v 760.52588 562.50323 364.73846
v 760.35883 687.50458 365.01288
v 737.92975 812.51105 341.11456
v 760.35883 687.50458 365.01288
v 760.87317 812.50916 364.5365
v 739.40106 937.50525 339.25995
v 760.87317 812.50916 364.5365
v 762.53058 937.50446 362.69977
v 870.07715 187.50374 473.9646
v 893.7168 62.50348 496.87396
v 893.25555 187.50339 497.41739
v 869.62805 312.50372 474.43811
v 893.25555 187.50339 497.41739
v 892.87366 312.5033 497.89282
v 869.29688 437.50381 474.77304
v 892.87366 312.5033 497.89282
v 892.63898 437.50342 498.22784
v 869.20038 562.50433 474.83542
v 892.63898 437.50342 498.22784
v 892.66833 562.50409 498.28384
v 869.55139 687.50562 474.40277
v 892.66833 562.50409 498.28384
v 893.12665 687.50537 497.83209
v 870.573 812.50452 473.28201
v 893.12665 687.50537 497.83209
v 894.08801 812.50421 496.70001
v 871.82501 937.50232 471.97311
v 894.08801 812.50421 496.70001
v 895.09418 937.50214 495.4342
v 497.53409 1062.49548 96.37663
v 522.84363 937.49487 119.77108
v 522.84369 1062.5127 119.77098
v 498.8855 1187.50085 94.98112
v 522.84369 1062.5127 119.77098
v 523.21924 1187.51135 118.45049
v 499.46475 1312.5033 94.35361
v 523.21924 1187.51135 118.45049
v 518.37555 1325.0061 112.9914
v 499.89529 1446.66833 93.87461
v 518.37555 1325.0061 112.9914
v 513.19385 1444.05078 107.23287
v 608.58429 1062.50415 207.04759
v 629.23187 937.5036 230.61176
v 629.23187 1062.50403 230.61176
v 608.1864 1187.50464 206.87479
v 629.23187 1062.50403 230.61176
v 629.31989 1187.50403 230.40027
v 608.00775 1312.50464 206.52197
v 629.31989 1187.50403 230.40027
v 629.60638 1312.50391 229.99905
v 608.1015 1437.50439 206.07211
v 629.60638 1312.50391 229.99905
v 629.99847 1437.50391 229.5289
v 739.40094 1062.50232 339.2601
v 762.53058 937.50446 362.69977
v 762.53046 1062.50317 362.69986
v 737.92969 1187.49658 341.11462
v 762.53046 1062.50317 362.69986
v 760.87311 1187.49841 364.53656
v 737.6814 1312.5022 341.55249
v 760.87311 1187.49841 364.53656
v 760.35883 1312.50305 365.01288
v 737.91052 1437.50366 341.28384
v 760.35883 1312.50305 365.01288
v 760.52588 1437.50439 364.73843
v 485.64719 1562.50293 77.92497
v 499.84851 1464.58459 93.72061
v 500.27441 1562.50378 93.48738
v 483.04538 1675.00354 74.42798
v 500.27441 1562.50378 93.48738
v 500.70987 1687.50378 93.05415
v 500.33914 1541.67053 93.71622
v 513.19385 1444.05078 107.23287
v 518.98834 1550.00378 112.48426
v 478.96255 1812.50378 69.14773
v 500.70987 1687.50378 93.05415
v 501.16489 1812.50378 92.59619
v 479.36826 1937.50378 68.67302
v 501.16489 1812.50378 92.59619
v 501.63733 1937.50378 92.11737
v 608.35913 1562.50415 205.5688
v 629.99847 1437.50391 229.5289
v 630.45544 1562.50378 229.01663
v 608.71356 1687.50403 205.0345
v 630.45544 1562.50378 229.01663
v 630.95148 1687.50378 228.47794
v 609.12732 1812.50391 204.48225
v 630.95148 1687.50378 228.47794
v 631.47046 1812.50378 227.92336
v 609.57843 1937.50391 203.92029
v 631.47046 1812.50378 227.92336
v 632.00238 1937.50378 227.36012
v 738.31482 1562.50391 340.77151
v 760.52588 1437.50439 364.73843
v 760.94733 1562.50427 364.22028
v 738.79663 1687.50391 340.17801
v 760.94733 1562.50427 364.22028
v 761.46466 1687.50403 363.62357
v 739.31616 1812.50378 339.5593
v 761.46466 1687.50403 363.62357
v 762.01965 1812.50391 363.00308
v 739.85425 1937.50378 338.9361
v 762.01965 1812.50391 363.00308
v 762.58844 1937.50391 362.37875
v 871.82495 1062.50525 471.97318
v 895.09418 937.50214 495.4342
v 895.09412 1062.50549 495.43427
v 870.57294 1187.50305 473.2821
v 895.09412 1062.50549 495.43427
v 894.08795 1187.50342 496.7001
v 869.55139 1312.50195 474.4028
v 894.08795 1187.50342 496.7001
v 893.12659 1312.5022 497.83212
v 869.20038 1437.5033 474.83542
v 893.12659 1312.5022 497.83212
v 892.66833 1437.50354 498.28384
v 869.29694 1562.50378 474.77301
v 892.66833 1437.50354 498.28384
v 892.63898 1562.50415 498.22781
v 869.62811 1687.50391 474.43811
v 892.63898 1562.50415 498.22781
v 892.87372 1687.50427 497.89279
v 870.07721 1812.50391 473.96457
v 892.87372 1687.50427 497.89279
v 893.25562 1812.50427 497.41736
v 870.58514 1937.50378 473.42319
v 893.25562 1812.50427 497.41736
v 893.7168 1937.50415 496.87393
v 978.88177 187.50394 584.20764
v 1002.09851 62.50372 607.30927
v 1001.77399 187.50374 607.63788
v 1111.0271 187.50392 717.36273
v 1134.38049 62.50374 740.71045
v 1134.31641 187.50381 740.79974
v 978.60785 312.50409 584.39325
v 1001.77399 187.50374 607.63788
v 1001.59271 312.50381 607.82324
v 978.51453 437.50439 584.35516
v 1001.59271 312.50381 607.82324
v 1001.63702 437.50406 607.7851
v 1111.04834 312.50406 717.27374
v 1134.31641 187.50381 740.79974
v 1134.42542 312.50397 740.70996
v 1111.28906 437.50424 716.95502
v 1134.42542 312.50397 740.70996
v 1134.75183 437.50415 740.38971
v 978.70862 562.50482 583.99451
v 1001.63702 437.50406 607.7851
v 1002.0061 562.50446 607.42377
v 979.29718 687.50476 583.24384
v 1002.0061 562.50446 607.42377
v 1002.75714 687.50446 606.672
v 1111.79285 562.50427 716.37622
v 1134.75183 437.50415 740.38971
v 1135.31519 562.50421 739.80927
v 1112.5376 687.50391 715.57642
v 1135.31519 562.50421 739.80927
v 1136.06519 687.50385 739.00958
v 980.22961 812.50336 582.21234
v 1002.75714 687.50446 606.672
v 1003.75873 812.50336 605.64581
v 981.04211 937.50281 581.37421
v 1003.75873 812.50336 605.64581
v 1004.54901 937.50305 604.82104
v 1113.36023 812.5033 714.72876
v 1136.06519 687.50385 739.00958
v 1136.83398 812.5033 738.16602
v 1113.93457 937.50336 714.15051
v 1136.83398 812.5033 738.16602
v 1137.34473 937.50342 737.59418
v 981.04211 1062.50476 581.37421
v 1004.54901 937.50305 604.82104
v 1004.54895 1062.50452 604.82111
v 980.22955 1187.50427 582.2124
v 1004.54895 1062.50452 604.82111
v 1003.75867 1187.50427 605.64587
v 1113.93457 1062.50427 714.15057
v 1137.34473 937.50342 737.59418
v 1137.34473 1062.50415 737.59418
v 1113.36011 1187.50427 714.72876
v 1137.34473 1062.50415 737.59418
v 1136.83386 1187.50427 738.16602
v 979.29712 1312.50281 583.2439
v 1003.75867 1187.50427 605.64587
v 1002.75708 1312.50317 606.67206
v 978.70862 1437.50281 583.99451
v 1002.75708 1312.50317 606.67206
v 1002.00604 1437.50317 607.42383
v 1112.5376 1312.50366 715.57648
v 1136.83386 1187.50427 738.16602
v 1136.06519 1312.50378 739.00964
v 1111.79272 1437.5033 716.37622
v 1136.06519 1312.50378 739.00964
v 1135.31519 1437.50342 739.80927
v 978.51453 1562.50317 584.35516
v 1002.00604 1437.50317 607.42383
v 1001.63702 1562.50354 607.78516
v 978.60791 1687.50354 584.39325
v 1001.63702 1562.50354 607.78516
v 1001.59271 1687.50378 607.82324
v 1111.28906 1562.50342 716.95508
v 1135.31519 1437.50342 739.80927
v 1134.75183 1562.50342 740.38977
v 1111.04834 1687.50354 717.2738
v 1134.75183 1562.50342 740.38977
v 1134.42542 1687.50366 740.70996
v 978.88177 1812.50366 584.20764
v 1001.59271 1687.50378 607.82324
v 1001.77399 1812.50391 607.63788
v 979.26312 1937.50378 583.87836
v 1001.77399 1812.50391 607.63788
v 1002.09851 1937.50391 607.3092
v 1111.0271 1812.50366 717.36273
v 1134.42542 1687.50366 740.70996
v 1134.31641 1812.50378 740.79974
v 1111.1687 1937.50378 717.27295
v 1134.31641 1812.50378 740.79974
v 1134.38062 1937.50391 740.71045
v 501.6373 62.50378 92.1174
v 478.96255 187.50386 69.14776
v 479.36826 62.5038 68.67305
v 501.16486 187.50377 92.59621
v 483.04535 325.00409 74.428
v 478.96255 187.50386 69.14776
v 500.70984 312.50378 93.05418
v 485.64716 437.50464 77.92499
v 483.04535 325.00409 74.428
v 500.27438 437.50378 93.4874
v 485.14075 544.45142 78.05043
v 485.64716 437.50464 77.92499
v 518.98828 450.00375 112.48427
v 499.89529 553.33771 93.87463
v 500.33911 458.33713 93.71623
v 513.19379 555.95581 107.23289
v 499.46475 687.50433 94.35364
v 499.89529 553.33771 93.87463
v 518.37555 675.00153 112.99143
v 498.88544 812.50677 94.98118
v 499.46475 687.50433 94.35364
v 523.21924 812.49628 118.45055
v 497.53397 937.51215 96.37675
v 498.88544 812.50677 94.98118
v 522.84363 937.49487 119.77108
v 497.53409 1062.49548 96.37663
v 497.53397 937.51215 96.37675
v 632.00238 62.5038 227.36015
v 609.12732 187.50365 204.48228
v 609.57843 62.5037 203.92033
v 631.4704 187.5038 227.9234
v 608.71356 312.50357 205.03453
v 609.12732 187.50365 204.48228
v 762.58844 62.50372 362.37881
v 739.3161 187.50375 339.55933
v 739.85419 62.50378 338.93613
v 762.01965 187.50366 363.00311
v 738.79663 312.50375 340.17804
v 739.3161 187.50375 339.55933
v 630.95142 312.50378 228.47797
v 608.35913 437.50345 205.56883
v 608.71356 312.50357 205.03453
v 630.45544 437.50378 229.01666
v 608.10144 562.50323 206.07214
v 608.35913 437.50345 205.56883
v 761.46466 312.50357 363.6236
v 738.31476 437.50375 340.77155
v 738.79663 312.50375 340.17804
v 760.94727 437.50339 364.22031
v 737.91052 562.50397 341.28387
v 738.31476 437.50375 340.77155
v 629.99841 562.50372 229.52893
v 608.00775 687.50293 206.522
v 608.10144 562.50323 206.07214
v 629.60638 687.50366 229.99908
v 608.1864 812.50299 206.8748
v 608.00775 687.50293 206.522
v 760.52588 562.50323 364.73846
v 737.6814 687.50543 341.55249
v 737.91052 562.50397 341.28387
v 760.35883 687.50458 365.01288
v 737.92975 812.51105 341.11456
v 737.6814 687.50543 341.55249
v 629.31989 812.50354 230.40028
v 608.58429 937.50342 207.04759
v 608.1864 812.50299 206.8748
v 629.23187 937.5036 230.61176
v 608.58429 1062.50415 207.04759
v 608.58429 937.50342 207.04759
v 760.87317 812.50916 364.5365
v 739.40106 937.50525 339.25995
v 737.92975 812.51105 341.11456
v 762.53058 937.50446 362.69977
v 739.40094 1062.50232 339.2601
v 739.40106 937.50525 339.25995
v 893.7168 62.50348 496.87396
v 870.07715 187.50374 473.9646
v 870.58508 62.50376 473.42322
v 893.25555 187.50339 497.41739
v 869.62805 312.50372 474.43811
v 870.07715 187.50374 473.9646
v 892.87366 312.5033 497.89282
v 869.29688 437.50381 474.77304
v 869.62805 312.50372 474.43811
v 892.63898 437.50342 498.22784
v 869.20038 562.50433 474.83542
v 869.29688 437.50381 474.77304
v 1002.09851 62.50372 607.30927
v 978.88177 187.50394 584.20764
v 979.26312 62.50386 583.87836
v 1001.77399 187.50374 607.63788
v 978.60785 312.50409 584.39325
v 978.88177 187.50394 584.20764
v 1001.59271 312.50381 607.82324
v 978.51453 437.50439 584.35516
v 978.60785 312.50409 584.39325
v 1001.63702 437.50406 607.7851
v 978.70862 562.50482 583.99451
v 978.51453 437.50439 584.35516
v 892.66833 562.50409 498.28384
v 869.55139 687.50562 474.40277
v 869.20038 562.50433 474.83542
v 893.12665 687.50537 497.83209
v 870.573 812.50452 473.28201
v 869.55139 687.50562 474.40277
v 894.08801 812.50421 496.70001
v 871.82501 937.50232 471.97311
v 870.573 812.50452 473.28201
v 895.09418 937.50214 495.4342
v 871.82495 1062.50525 471.97318
v 871.82501 937.50232 471.97311
v 1002.0061 562.50446 607.42377
v 979.29718 687.50476 583.24384
v 978.70862 562.50482 583.99451
v 1002.75714 687.50446 606.672
v 980.22961 812.50336 582.21234
v 979.29718 687.50476 583.24384
v 1003.75873 812.50336 605.64581
v 981.04211 937.50281 581.37421
v 980.22961 812.50336 582.21234
v 1004.54901 937.50305 604.82104
v 981.04211 1062.50476 581.37421
v 981.04211 937.50281 581.37421
v 522.84369 1062.5127 119.77098
v 498.8855 1187.50085 94.98112
v 497.53409 1062.49548 96.37663
v 523.21924 1187.51135 118.45049
v 499.46475 1312.5033 94.35361
v 498.8855 1187.50085 94.98112
v 499.84851 1464.58459 93.72061
v 485.64719 1562.50293 77.92497
v 485.14078 1455.55493 78.05042
v 518.37555 1325.0061 112.9914
v 499.89529 1446.66833 93.87461
v 499.46475 1312.5033 94.35361
v 513.19385 1444.05078 107.23287
v 500.33914 1541.67053 93.71622
v 499.89529 1446.66833 93.87461
v 500.27441 1562.50378 93.48738
v 483.04538 1675.00354 74.42798
v 485.64719 1562.50293 77.92497
v 500.70987 1687.50378 93.05415
v 478.96255 1812.50378 69.14773
v 483.04538 1675.00354 74.42798
v 501.16489 1812.50378 92.59619
v 479.36826 1937.50378 68.67302
v 478.96255 1812.50378 69.14773
v 629.23187 1062.50403 230.61176
v 608.1864 1187.50464 206.87479
v 608.58429 1062.50415 207.04759
v 629.31989 1187.50403 230.40027
v 608.00775 1312.50464 206.52197
v 608.1864 1187.50464 206.87479
v 762.53046 1062.50317 362.69986
v 737.92969 1187.49658 341.11462
v 739.40094 1062.50232 339.2601
v 760.87311 1187.49841 364.53656
v 737.6814 1312.5022 341.55249
v 737.92969 1187.49658 341.11462
v 629.60638 1312.50391 229.99905
v 608.1015 1437.50439 206.07211
v 608.00775 1312.50464 206.52197
v 629.99847 1437.50391 229.5289
v 608.35913 1562.50415 205.5688
v 608.1015 1437.50439 206.07211
v 760.35883 1312.50305 365.01288
v 737.91052 1437.50366 341.28384
v 737.6814 1312.5022 341.55249
v 760.52588 1437.50439 364.73843
v 738.31482 1562.50391 340.77151
v 737.91052 1437.50366 341.28384
v 630.45544 1562.50378 229.01663
v 608.71356 1687.50403 205.0345
v 608.35913 1562.50415 205.5688
v 630.95148 1687.50378 228.47794
v 609.12732 1812.50391 204.48225
v 608.71356 1687.50403 205.0345
v 760.94733 1562.50427 364.22028
v 738.79663 1687.50391 340.17801
v 738.31482 1562.50391 340.77151
v 761.46466 1687.50403 363.62357
v 739.31616 1812.50378 339.5593
v 738.79663 1687.50391 340.17801
v 631.47046 1812.50378 227.92336
v 609.57843 1937.50391 203.92029
v 609.12732 1812.50391 204.48225
v 762.01965 1812.50391 363.00308
v 739.85425 1937.50378 338.9361
v 739.31616 1812.50378 339.5593
v 895.09412 1062.50549 495.43427
v 870.57294 1187.50305 473.2821
v 871.82495 1062.50525 471.97318
v 894.08795 1187.50342 496.7001
v 869.55139 1312.50195 474.4028
v 870.57294 1187.50305 473.2821
v 893.12659 1312.5022 497.83212
v 869.20038 1437.5033 474.83542
v 869.55139 1312.50195 474.4028
v 892.66833 1437.50354 498.28384
v 869.29694 1562.50378 474.77301
v 869.20038 1437.5033 474.83542
v 1004.54895 1062.50452 604.82111
v 980.22955 1187.50427 582.2124
v 981.04211 1062.50476 581.37421
v 1003.75867 1187.50427 605.64587
v 979.29712 1312.50281 583.2439
v 980.22955 1187.50427 582.2124
v 1002.75708 1312.50317 606.67206
v 978.70862 1437.50281 583.99451
v 979.29712 1312.50281 583.2439
v 1002.00604 1437.50317 607.42383
v 978.51453 1562.50317 584.35516
v 978.70862 1437.50281 583.99451
v 892.63898 1562.50415 498.22781
v 869.62811 1687.50391 474.43811
v 869.29694 1562.50378 474.77301
v 892.87372 1687.50427 497.89279
v 870.07721 1812.50391 473.96457
v 869.62811 1687.50391 474.43811
v 893.25562 1812.50427 497.41736
v 870.58514 1937.50378 473.42319
v 870.07721 1812.50391 473.96457
v 1001.63702 1562.50354 607.78516
v 978.60791 1687.50354 584.39325
v 978.51453 1562.50317 584.35516
v 1001.59271 1687.50378 607.82324
v 978.88177 1812.50366 584.20764
v 978.60791 1687.50354 584.39325
v 1001.77399 1812.50391 607.63788
v 979.26312 1937.50378 583.87836
v 978.88177 1812.50366 584.20764
v 1134.38049 62.50374 740.71045
v 1111.0271 187.50392 717.36273
v 1111.1687 62.50384 717.27301
v 1134.31641 187.50381 740.79974
v 1111.04834 312.50406 717.27374
v 1111.0271 187.50392 717.36273
v 1134.42542 312.50397 740.70996
v 1111.28906 437.50424 716.95502
v 1111.04834 312.50406 717.27374
v 1134.75183 437.50415 740.38971
v 1111.79285 562.50427 716.37622
v 1111.28906 437.50424 716.95502
v 1135.31519 562.50421 739.80927
v 1112.5376 687.50391 715.57642
v 1111.79285 562.50427 716.37622
v 1136.06519 687.50385 739.00958
v 1113.36023 812.5033 714.72876
v 1112.5376 687.50391 715.57642
v 1136.83398 812.5033 738.16602
v 1113.93457 937.50336 714.15051
v 1113.36023 812.5033 714.72876
v 1137.34473 937.50342 737.59418
v 1113.93457 1062.50427 714.15057
v 1113.93457 937.50336 714.15051
v 1137.34473 1062.50415 737.59418
v 1113.36011 1187.50427 714.72876
v 1113.93457 1062.50427 714.15057
v 1136.83386 1187.50427 738.16602
v 1112.5376 1312.50366 715.57648
v 1113.36011 1187.50427 714.72876
v 1136.06519 1312.50378 739.00964
v 1111.79272 1437.5033 716.37622
v 1112.5376 1312.50366 715.57648
v 1135.31519 1437.50342 739.80927
v 1111.28906 1562.50342 716.95508
v 1111.79272 1437.5033 716.37622
v 1134.75183 1562.50342 740.38977
v 1111.04834 1687.50354 717.2738
v 1111.28906 1562.50342 716.95508
v 1134.42542 1687.50366 740.70996
v 1111.0271 1812.50366 717.36273
v 1111.04834 1687.50354 717.2738
v 1134.31641 1812.50378 740.79974
v 1111.1687 1937.50378 717.27295
v 1111.0271 1812.50366 717.36273
f 1 2 3
f 4 5 6
f 7 8 9
f 10 11 12
f 13 14 15
f 16 17 18
f 19 20 21
f 22 23 24
f 25 26 27
f 28 29 30
f 31 32 33
f 34 35 36
f 37 38 39
f 40 41 42
f 43 44 45
f 46 47 48
f 49 50 51
f 52 53 54
f 55 56 57
f 58 59 60
f 61 62 63
f 64 65 66
f 67 68 69
f 70 71 72
f 73 74 75
f 76 77 78
f 79 80 81
f 82 83 84
f 85 86 87
f 88 89 90
f 91 92 93
f 94 95 96
f 97 98 99
f 100 101 102
f 103 104 105
f 106 107 108
f 109 110 111
f 112 113 114
f 115 116 117
f 118 119 120
f 121 122 123
f 124 125 126
f 127 128 129
f 130 131 132
f 133 134 135
f 136 137 138
f 139 140 141
f 142 143 144
f 145 146 147
f 148 149 150
f 151 152 153
f 154 155 156
f 157 158 159
f 160 161 162
f 163 164 165
f 166 167 168
f 169 170 171
f 172 173 174
f 175 176 177
f 178 179 180
f 181 182 183
f 184 185 186
f 187 188 189
f 190 191 192
f 193 194 195
f 196 197 198
f 199 200 201
f 202 203 204
f 205 206 207
f 208 209 210
f 211 212 213
f 214 215 216
f 217 218 219
f 220 221 222
f 223 224 225
f 226 227 228
f 229 230 231
f 232 233 234
f 235 236 237
f 238 239 240
f 241 242 243
f 244 245 246
f 247 248 249
f 250 251 252
f 253 254 255
f 256 257 258
f 259 260 261
f 262 263 264
f 265 266 267
f 268 269 270
f 271 272 273
f 274 275 276
f 277 278 279
f 280 281 282
f 283 284 285
f 286 287 288
f 289 290 291
f 292 293 294
f 295 296 297
f 298 299 300
f 301 302 303
f 304 305 306
f 307 308 309
f 310 311 312
f 313 314 315
f 316 317 318
f 319 320 321
f 322 323 324
f 325 326 327
f 328 329 330
f 331 332 333
f 334 335 336
f 337 338 339
f 340 341 342
f 343 344 345
f 346 347 348
f 349 350 351
f 352 353 354
f 355 356 357
f 358 359 360
f 361 362 363
f 364 365 366
f 367 368 369
f 370 371 372
f 373 374 375
f 376 377 378
f 379 380 381
f 382 383 384
f 385 386 387
f 388 389 390
f 391 392 393
f 394 395 396
f 397 398 399
f 400 401 402
f 403 404 405
f 406 407 408
f 409 410 411
f 412 413 414
f 415 416 417
f 418 419 420
f 421 422 423
f 424 425 426
f 427 428 429
f 430 431 432
f 433 434 435
f 436 437 438
f 439 440 441
f 442 443 444
f 445 446 447
f 448 449 450
f 451 452 453
f 454 455 456
f 457 458 459
f 460 461 462
f 463 464 465
f 466 467 468
f 469 470 471
f 472 473 474
f 475 476 477
f 478 479 480
f 481 482 483
f 484 485 486
f 487 488 489
f 490 491 492
f 493 494 495
f 496 497 498
f 499 500 501
f 502 503 504
f 505 506 507
f 508 509 510
f 511 512 513
f 514 515 516
f 517 518 519
f 520 521 522
f 523 524 525
f 526 527 528
f 529 530 531
f 532 533 534
f 535 536 537
f 538 539 540
f 541 542 543
f 544 545 546
f 547 548 549
f 550 551 552
f 553 554 555
f 556 557 558
f 559 560 561
f 562 563 564
f 565 566 567
f 568 569 570
f 571 572 573
f 574 575 576
f 577 578 579
f 580 581 582
f 583 584 585
f 586 587 588
f 589 590 591
f 592 593 594
f 595 596 597
f 598 599 600
f 601 602 603
f 604 605 606
f 607 608 609
f 610 611 612
f 613 614 615
f 616 617 618
f 619 620 621
f 622 623 624
f 625 626 627
f 628 629 630
f 631 632 633
f 634 635 636
f 637 638 639
f 640 641 642
f 643 644 645
f 646 647 648
f 649 650 651
f 652 653 654
f 655 656 657
f 658 659 660
f 661 662 663
f 664 665 666
f 667 668 669
f 670 671 672
f 673 674 675
f 676 677 678
f 679 680 681
f 682 683 684
f 685 686 687
f 688 689 690
f 691 692 693
f 694 695 696
f 697 698 699
f 700 701 702
f 703 704 705
f 706 707 708
f 709 710 711
f 712 713 714
f 715 716 717
f 718 719 720
f 721 722 723
f 724 725 726
f 727 728 729
f 730 731 732
f 733 734 735
f 736 737 738
f 739 740 741
f 742 743 744
f 745 746 747
f 748 749 750
f 751 752 753
f 754 755 756
f 757 758 759
f 760 761 762
f 763 764 765
f 766 767 768
f 769 770 771
f 772 773 774
f 775 776 777
f 778 779 780
f 781 782 783
f 784 785 786
f 787 788 789
f 790 791 792
f 793 794 795
f 796 797 798
f 799 800 801
f 802 803 804
f 805 806 807
f 808 809 810
f 811 812 813
f 814 815 816
f 817 818 819
f 820 821 822
f 823 824 825
f 826 827 828
f 829 830 831
f 832 833 834
f 835 836 837
f 838 839 840
f 841 842 843
f 844 845 846
f 847 848 849
f 850 851 852
f 853 854 855
f 856 857 858
f 859 860 861
f 862 863 864
f 865 866 867
f 868 869 870
f 871 872 873
f 874 875 876
f 877 878 879
f 880 881 882
f 883 884 885
f 886 887 888
f 889 890 891
f 892 893 894
f 895 896 897
f 898 899 900
f 901 902 903
f 904 905 906
f 907 908 909
f 910 911 912
f 913 914 915
f 916 917 918
f 919 920 921
f 922 923 924
f 925 926 927
f 928 929 930
f 931 932 933
f 934 935 936
f 937 938 939
f 940 941 942
f 943 944 945
f 946 947 948
f 949 950 951
f 952 953 954
f 955 956 957
f 958 959 960
f 961 962 963
f 964 965 966
f 967 968 969
f 970 971 972
f 973 974 975
f 976 977 978
f 979 980 981
f 982 983 984
f 985 986 987
f 988 989 990
f 991 992 993
f 994 995 996
f 997 998 999
f 1000 1001 1002
f 1003 1004 1005
f 1006 1007 1008
f 1009 1010 1011
f 1012 1013 1014
f 1015 1016 1017
f 1018 1019 1020
f 1021 1022 1023
f 1024 1025 1026
f 1027 1028 1029
f 1030 1031 1032
f 1033 1034 1035
f 1036 1037 1038
f 1039 1040 1041
f 1042 1043 1044
f 1045 1046 1047
f 1048 1049 1050
f 1051 1052 1053
f 1054 1055 1056
f 1057 1058 1059
f 1060 1061 1062
f 1063 1064 1065
f 1066 1067 1068
f 1069 1070 1071
f 1072 1073 1074
f 1075 1076 1077
f 1078 1079 1080
f 1081 1082 1083
f 1084 1085 1086
f 1087 1088 1089
f 1090 1091 1092
f 1093 1094 1095
f 1096 1097 1098
f 1099 1100 1101
f 1102 1103 1104
f 1105 1106 1107
f 1108 1109 1110
f 1111 1112 1113
f 1114 1115 1116
f 1117 1118 1119
f 1120 1121 1122
f 1123 1124 1125
f 1126 1127 1128
f 1129 1130 1131
f 1132 1133 1134
f 1135 1136 1137
f 1138 1139 1140
f 1141 1142 1143
f 1144 1145 1146
f 1147 1148 1149
f 1150 1151 1152
f 1153 1154 1155
f 1156 1157 1158
f 1159 1160 1161
f 1162 1163 1164
f 1165 1166 1167
f 1168 1169 1170
f 1171 1172 1173
f 1174 1175 1176
f 1177 1178 1179
f 1180 1181 1182
f 1183 1184 1185
f 1186 1187 1188
f 1189 1190 1191
f 1192 1193 1194
f 1195 1196 1197
f 1198 1199 1200
f 1201 1202 1203
f 1204 1205 1206
f 1207 1208 1209
f 1210 1211 1212
f 1213 1214 1215
f 1216 1217 1218
f 1219 1220 1221
f 1222 1223 1224
f 1225 1226 1227
f 1228 1229 1230
f 1231 1232 1233
f 1234 1235 1236
f 1237 1238 1239
f 1240 1241 1242
f 1243 1244 1245
f 1246 1247 1248
f 1249 1250 1251
f 1252 1253 1254
f 1255 1256 1257
f 1258 1259 1260
f 1261 1262 1263
f 1264 1265 1266
f 1267 1268 1269
f 1270 1271 1272
f 1273 1274 1275
f 1276 1277 1278
f 1279 1280 1281
f 1282 1283 1284
f 1285 1286 1287
f 1288 1289 1290
f 1291 1292 1293
f 1294 1295 1296
f 1297 1298 1299
f 1300 1301 1302
f 1303 1304 1305
f 1306 1307 1308
f 1309 1310 1311
f 1312 1313 1314
f 1315 1316 1317
f 1318 1319 1320
f 1321 1322 1323
f 1324 1325 1326
f 1327 1328 1329
f 1330 1331 1332
f 1333 1334 1335
f 1336 1337 1338
f 1339 1340 1341
f 1342 1343 1344
f 1345 1346 1347
f 1348 1349 1350
f 1351 1352 1353
f 1354 1355 1356
f 1357 1358 1359
f 1360 1361 1362
f 1363 1364 1365
f 1366 1367 1368
f 1369 1370 1371
f 1372 1373 1374
f 1375 1376 1377
f 1378 1379 1380
f 1381 1382 1383
f 1384 1385 1386
f 1387 1388 1389
f 1390 1391 1392
f 1393 1394 1395
f 1396 1397 1398
f 1399 1400 1401
f 1402 1403 1404
f 1405 1406 1407
f 1408 1409 1410
f 1411 1412 1413
f 1414 1415 1416
f 1417 1418 1419
f 1420 1421 1422
f 1423 1424 1425
f 1426 1427 1428
f 1429 1430 1431
f 1432 1433 1434
f 1435 1436 1437
f 1438 1439 1440
f 1441 1442 1443
f 1444 1445 1446
f 1447 1448 1449
f 1450 1451 1452
f 1453 1454 1455
f 1456 1457 1458
f 1459 1460 1461
f 1462 1463 1464
f 1465 1466 1467
f 1468 1469 1470
f 1471 1472 1473
f 1474 1475 1476
f 1477 1478 1479
f 1480 1481 1482
f 1483 1484 1485
f 1486 1487 1488
f 1489 1490 1491
f 1492 1493 1494
f 1495 1496 1497
f 1498 1499 1500
f 1501 1502 1503
f 1504 1505 1506
f 1507 1508 1509
f 1510 1511 1512
f 1513 1514 1515
f 1516 1517 1518
f 1519 1520 1521
f 1522 1523 1524
f 1525 1526 1527
f 1528 1529 1530
f 1531 1532 1533
f 1534 1535 1536
f 1537 1538 1539
f 1540 1541 1542
f 1543 1544 1545
f 1546 1547 1548
f 1549 1550 1551
f 1552 1553 1554
f 1555 1556 1557
f 1558 1559 1560
f 1561 1562 1563
f 1564 1565 1566
f 1567 1568 1569
f 1570 1571 1572
f 1573 1574 1575
f 1576 1577 1578
f 1579 1580 1581
f 1582 1583 1584
f 1585 1586 1587
f 1588 1589 1590
f 1591 1592 1593
f 1594 1595 1596
f 1597 1598 1599
f 1600 1601 1602
f 1603 1604 1605
f 1606 1607 1608
f 1609 1610 1611
f 1612 1613 1614
f 1615 1616 1617
f 1618 1619 1620
f 1621 1622 1623
f 1624 1625 1626
f 1627 1628 1629
f 1630 1631 1632
f 1633 1634 1635
f 1636 1637 1638
f 1639 1640 1641
f 1642 1643 1644
f 1645 1646 1647
f 1648 1649 1650
f 1651 1652 1653
f 1654 1655 1656
f 1657 1658 1659
f 1660 1661 1662
f 1663 1664 1665
f 1666 1667 1668
f 1669 1670 1671
f 1672 1673 1674
f 1675 1676 1677
f 1678 1679 1680
f 1681 1682 1683
f 1684 1685 1686
f 1687 1688 1689
f 1690 1691 1692
f 1693 1694 1695
f 1696 1697 1698
f 1699 1700 1701
f 1702 1703 1704
f 1705 1706 1707
f 1708 1709 1710
f 1711 1712 1713
f 1714 1715 1716
f 1717 1718 1719
f 1720 1721 1722
f 1723 1724 1725
f 1726 1727 1728
f 1729 1730 1731
f 1732 1733 1734
f 1735 1736 1737
f 1738 1739 1740
f 1741 1742 1743
f 1744 1745 1746
f 1747 1748 1749
f 1750 1751 1752
f 1753 1754 1755
f 1756 1757 1758
f 1759 1760 1761
f 1762 1763 1764
f 1765 1766 1767
f 1768 1769 1770
f 1771 1772 1773
f 1774 1775 1776
f 1777 1778 1779
f 1780 1781 1782
f 1783 1784 1785
f 1786 1787 1788
f 1789 1790 1791
f 1792 1793 1794
f 1795 1796 1797
f 1798 1799 1800
f 1801 1802 1803
f 1804 1805 1806
f 1807 1808 1809
f 1810 1811 1812
f 1813 1814 1815
f 1816 1817 1818
f 1819 1820 1821
f 1822 1823 1824
f 1825 1826 1827
f 1828 1829 1830
f 1831 1832 1833
f 1834 1835 1836
f 1837 1838 1839
f 1840 1841 1842
f 1843 1844 1845
f 1846 1847 1848
f 1849 1850 1851
f 1852 1853 1854
f 1855 1856 1857
f 1858 1859 1860
f 1861 1862 1863
f 1864 1865 1866
f 1867 1868 1869
f 1870 1871 1872
f 1873 1874 1875
f 1876 1877 1878
f 1879 1880 1881
f 1882 1883 1884
f 1885 1886 1887
f 1888 1889 1890
f 1891 1892 1893
f 1894 1895 1896
f 1897 1898 1899
f 1900 1901 1902
f 1903 1904 1905
f 1906 1907 1908
f 1909 1910 1911
f 1912 1913 1914
f 1915 1916 1917
f 1918 1919 1920
f 1921 1922 1923
f 1924 1925 1926
f 1927 1928 1929
f 1930 1931 1932
f 1933 1934 1935
f 1936 1937 1938
f 1939 1940 1941
f 1942 1943 1944
f 1945 1946 1947
f 1948 1949 1950